<svg width="868" height="86" viewBox="0 0 868 86" fill="none" xmlns="http://www.w3.org/2000/svg">
<path d="M72.5703 38.8281C72.5703 18.9459 56.4526 2.82812 36.5703 2.82812C16.6881 2.82812 0.570312 18.9459 0.570312 38.8281C0.570312 58.7104 16.6881 74.8281 36.5703 74.8281C56.4526 74.8281 72.5703 58.7104 72.5703 38.8281Z" fill="#A967FF"/>
<path d="M63.251 45.7754C64.4765 41.5443 64.7172 37.0798 63.954 32.737C63.1908 28.3945 61.4448 24.2931 58.8548 20.759C56.2647 17.2251 52.9019 14.3559 49.0338 12.3795C45.1656 10.4031 40.8986 9.37402 36.5721 9.37402C32.2455 9.37402 27.9786 10.4031 24.1104 12.3795C20.2423 14.3559 16.8795 17.2251 14.2894 20.759C11.6993 24.2931 9.95328 28.3945 9.19011 32.737C8.42693 37.0798 8.66762 41.5443 9.89308 45.7754L14.3655 40.8513C13.9192 38.8907 13.6938 36.8847 13.6936 34.8722C13.6936 29.7062 14.8004 25.2554 16.8731 21.6677C16.5655 24.2067 16.1149 28.26 16.3265 28.6995C16.3931 28.8373 19.2651 32.2653 20.6364 33.8933C20.5442 34.2449 20.4582 34.6005 20.3798 34.9681C20.3405 35.1099 21.3593 36.6641 21.2927 36.8618C20.9969 37.637 10.5513 47.05 10.4514 47.6972C10.4161 47.9308 10.8295 51.2172 10.996 51.5626C11.1351 51.8524 13.2293 55.1884 13.2293 55.1884C13.2293 55.1884 13.0706 53.3027 13.1529 53.1708C13.2352 53.0389 14.2206 50.3921 14.3048 50.2422C14.3499 50.1682 15.9484 48.2445 15.9484 48.2445V48.5023L15.1335 50.4999C15.1335 50.4999 14.4929 54.8667 14.485 55.0945C14.4733 55.536 15.8309 58.3108 15.9621 58.4646C16.2932 58.8642 19.5804 61.6388 19.5804 61.6388C19.5804 61.6388 19.3728 60.3004 19.3845 60.1306C19.3963 59.9609 19.9586 57.1501 20.0761 56.8945C20.1114 56.8145 21.2515 55.3282 21.2515 55.3282L21.2731 55.528C21.2731 55.528 20.8578 56.9264 20.8187 57.0783C20.7794 57.23 20.799 60.9897 20.8187 61.2014C20.8381 61.4132 22.3388 63.229 22.4583 63.4108C22.7775 63.9042 27.1874 65.6762 27.1874 65.6762C27.1874 65.6762 26.5996 64.6613 26.5762 64.2977C26.5644 64.0979 26.5251 61.7727 26.5448 61.6108C26.5644 61.4492 27.7712 59.5552 27.7712 59.5552L27.828 59.6832C27.828 59.6832 27.4793 61.6529 27.4715 61.7247C27.4518 61.9245 27.8868 64.6933 27.973 64.8152C28.1276 65.0429 31.4992 66.761 31.9224 66.8847C33.1801 67.2682 36.5927 68.2831 36.5927 68.2831C36.5927 68.2831 40.0759 67.2682 41.3316 66.8847C41.7469 66.761 45.1281 65.0429 45.2849 64.8152C45.3692 64.6933 45.802 61.9165 45.7825 61.7247C45.7825 61.6529 45.426 59.6832 45.426 59.6832L45.4847 59.5552C45.4847 59.5552 46.6933 61.4592 46.711 61.6108C46.7287 61.7627 46.6933 64.1001 46.6778 64.2977C46.6503 64.6613 46.0686 65.6762 46.0686 65.6762C46.0686 65.6762 50.4782 63.9042 50.7957 63.4108C50.9151 63.229 52.4235 61.4132 52.4373 61.2014C52.451 60.9897 52.4607 57.218 52.4373 57.0783C52.4137 56.9384 51.9847 55.528 51.9847 55.528L52.0082 55.3282C52.0082 55.3282 53.1406 56.8145 53.1836 56.8945C53.3011 57.1501 53.8673 59.9548 53.8752 60.1306C53.883 60.3065 53.6793 61.6388 53.6793 61.6388C53.6793 61.6388 56.9666 58.8582 57.2976 58.4646C57.4269 58.3108 58.7905 55.536 58.7748 55.0945C58.7748 54.8568 58.1243 50.4999 58.1243 50.4999L57.3114 48.5023V48.2426C57.3114 48.2426 58.9119 50.1743 58.953 50.2402C59.0353 50.39 60.0109 53.017 60.1069 53.1688C60.2028 53.3205 60.0305 55.1865 60.0305 55.1865C60.0305 55.1865 62.1228 51.8503 62.2658 51.5606C62.4322 51.215 62.8436 47.9289 62.8064 47.6952C62.7104 47.0439 52.2629 37.635 51.9672 36.8599C51.8927 36.6601 52.9192 35.1058 52.8799 34.9661C52.7997 34.5986 52.7115 34.243 52.6233 33.8913C53.9946 32.2712 56.8627 28.8433 56.9332 28.6973C57.1291 28.2719 56.7118 24.3765 56.4043 21.8315C58.4162 25.3912 59.4917 29.7841 59.4917 34.8702C59.4925 36.8828 59.267 38.889 58.8198 40.8492L63.251 45.7754ZM36.5888 21.2041C36.9609 21.2202 37.6447 21.1802 38.062 21.2701C44.8657 22.7703 48.6406 28.6854 48.9247 29.1789C49.0148 29.3566 47.8296 28.957 47.4809 28.9071C47.1695 28.8652 46.9677 28.9971 46.7522 29.3067C46.5367 29.6163 40.4226 38.3301 40.2737 37.9945C40.1914 37.7947 39.7545 35.2258 39.7545 35.2258L38.4223 35.2638C38.4223 35.2638 40.0307 44.6167 40.1757 45.5936C40.3207 46.5705 40.3853 46.7003 40.1757 46.8142C39.4451 47.2138 39.4352 47.1817 36.5711 48.0267C36.5711 48.0267 33.6522 47.1439 33.0449 46.8142C32.8353 46.7003 32.9019 46.5686 33.0449 45.5936C33.1879 44.6188 34.7963 35.2638 34.7963 35.2638L33.4641 35.2258C33.4641 35.2258 33.0292 37.8047 32.9469 37.9945C32.798 38.3301 26.678 29.6163 26.4703 29.3067C26.2627 28.9971 26.0511 28.8633 25.7397 28.9071C25.391 28.957 24.2038 29.3566 24.2959 29.1789C24.5838 28.6854 28.3569 22.7703 35.1606 21.2701C35.568 21.1802 36.2165 21.2202 36.5888 21.2041ZM47.4829 39.0033C47.4829 40.4697 46.1664 41.6582 44.5443 41.6582C44.1928 41.659 43.8434 41.6017 43.5099 41.4885C44.56 40.238 45.8354 38.7317 46.9265 37.4472C47.2832 37.8844 47.4799 38.4345 47.4829 39.0033ZM26.2902 37.4552C27.3833 38.7397 28.6567 40.2519 29.7048 41.4965C29.3719 41.6097 29.0232 41.667 28.6724 41.6662C27.0483 41.6662 25.7338 40.4777 25.7338 39.0114C25.7367 38.4426 25.9333 37.8924 26.2902 37.4552ZM53.9125 42.1157C54.1416 42.9147 51.6693 46.5944 50.925 46.97C50.5586 47.1578 46.1077 45.248 44.5698 44.7147C44.4013 44.6547 42.9811 44.8106 42.9811 44.8106L43.0066 44.9803C43.0066 44.9803 44.1193 45.1242 44.2759 45.238C44.6423 45.5018 47.4241 48.2085 47.5143 48.4962C47.6495 48.9297 46.6953 51.253 46.7639 51.4588C46.8324 51.6645 49.2009 51.1512 49.2009 51.1512C49.2009 51.1512 47.5868 52.8771 47.2752 53.0788C46.9638 53.2806 44.4445 54.0039 43.8901 54.0278C43.3357 54.0518 41.1161 52.925 41.0358 53.0469C40.9554 53.1688 43.0261 54.9068 43.0261 54.9068C43.0261 54.9068 39.2549 54.773 38.9435 54.6391C38.6319 54.5053 36.5927 53.1688 36.5927 53.1688C36.5927 53.1688 34.6121 54.5012 34.3026 54.6391C33.993 54.7769 30.2199 54.9068 30.2199 54.9068C30.2199 54.9068 32.3102 53.1988 32.2104 53.0469C32.1104 52.8951 29.9105 54.0458 29.3561 54.0278C28.8017 54.0098 26.2784 53.2847 25.9707 53.0788C25.6633 52.8732 24.0451 51.1512 24.0451 51.1512C24.0451 51.1512 26.4077 51.6585 26.4801 51.4588C26.5526 51.259 25.5947 48.9297 25.7318 48.4962C25.822 48.2085 28.6038 45.4997 28.97 45.238C29.1268 45.1242 30.2336 44.9803 30.2336 44.9803L30.2631 44.8106C30.2631 44.8106 28.8447 44.6547 28.6763 44.7147C27.1385 45.248 22.6836 47.1578 22.3192 46.97C21.5768 46.5944 19.1024 42.9147 19.3317 42.1157C19.5609 41.3167 22.4838 37.4391 22.5367 37.0876C22.5738 36.836 21.7002 35.2418 21.6648 35.09C21.6159 34.8902 23.6455 34.3788 23.8767 34.6125C23.9687 34.7084 24.7229 35.5833 25.7338 36.77C25.2282 37.112 24.8129 37.5758 24.5249 38.1204C24.2369 38.6649 24.0848 39.2735 24.0824 39.8924C24.0824 41.9959 25.8083 43.7018 27.9377 43.7018C28.9479 43.7041 29.9199 43.3083 30.6509 42.5971C31.3483 43.4362 31.8126 44.0075 31.8263 44.0615C31.8126 44.3312 31.2033 48.1905 31.2092 48.3524C31.2328 48.8398 35.4016 50.3661 36.5888 50.9494C37.7642 50.3641 42.0153 48.8379 42.0387 48.3524C42.0387 48.1905 41.4354 44.3312 41.4216 44.0615C41.4373 44.0075 41.9016 43.4362 42.597 42.5971C43.328 43.3083 44.3001 43.7041 45.3103 43.7018C47.4398 43.7018 49.1677 41.9959 49.1677 39.8924C49.1644 39.2737 49.0122 38.6654 48.7242 38.1208C48.4362 37.5764 48.0214 37.1125 47.5163 36.77C48.5251 35.5833 49.2793 34.7084 49.3734 34.6125C49.6046 34.3788 51.634 34.8902 51.587 35.09C51.5538 35.2338 50.6761 36.828 50.7134 37.0876C50.7525 37.4311 53.6734 41.3047 53.9027 42.1077L53.9125 42.1157ZM38.3147 18.4574C37.9111 18.3495 36.7473 18.3355 36.5986 18.3355H36.5829C36.432 18.3355 35.3271 18.3495 34.9217 18.4574C30.926 19.5471 27.3769 21.9117 24.7934 25.2055C23.6631 24.758 21.7687 24.0069 21.6473 23.8392C21.4689 23.6133 19.9957 17.914 20.08 17.5385C24.0177 13.679 29.6401 11.5575 36.5829 11.5575C43.5648 11.5575 49.2205 13.705 53.1581 17.6164C53.117 18.3875 51.7575 23.6233 51.591 23.8392C51.4656 23.9969 49.5732 24.758 48.4428 25.2055C45.858 21.9069 42.3051 19.5393 38.3048 18.4494L38.3147 18.4574Z" fill="white"/>
<path d="M89.0175 39.2861C89.0175 17.9188 103.975 0.214455 126.766 0.214455C134.601 0.214455 140.401 0.519698 150.372 1.23194C149.253 10.5929 149.151 40.4053 149.762 51.8012H149.049C148.541 9.16837 142.13 1.43544 125.749 1.43544C107.129 1.43544 93.9014 15.3751 93.9014 31.5532C93.9014 54.2432 109.978 69.8108 126.766 69.8108C144.267 69.8108 154.34 61.2639 161.158 43.9665L161.666 44.2718C156.986 56.7869 148.134 76.0175 125.749 76.0175C103.262 76.0175 89.0175 60.3481 89.0175 39.2861ZM214.977 2.14769C211.822 2.85993 205.005 3.16518 205.005 8.55787V68.1828C205.005 73.5755 211.822 73.8808 214.977 74.593V75H188.013V74.593C191.066 73.8808 197.883 73.5755 197.883 68.1828V37.8616H172.954V68.1828C172.954 73.5755 179.771 73.8808 182.926 74.593V75H155.962V74.593C159.015 73.8808 165.832 73.5755 165.832 68.1828V8.55787C165.832 3.16518 159.015 2.85993 155.962 2.14769V1.74069H182.926V2.14769C179.771 2.85993 172.954 3.16518 172.954 8.55787V36.4371H197.883V8.55787C197.883 3.16518 191.066 2.85993 188.013 2.14769V1.74069H214.977V2.14769ZM266.656 70.3195C268.081 74.0843 273.067 73.8808 276.933 74.593V75H248.545V74.593C253.022 73.8808 260.144 73.8808 258.822 70.3195L247.426 38.8791H228.195L220.157 63.1971C217.715 70.523 221.785 73.2703 229.009 74.593V75H204.182V74.593C215.477 72.8633 216.494 69.5056 218.733 62.7901L239.388 0.214455H241.117L266.656 70.3195ZM228.704 37.4546H246.917L237.353 11.2033L228.704 37.4546ZM335.719 2.14769C332.565 2.85993 325.748 3.16518 325.748 8.55787V68.1828C325.748 73.5755 332.565 73.8808 335.719 74.593V75H308.756V74.593C311.808 73.8808 318.626 73.5755 318.626 68.1828V7.33689L300.107 73.8808H299.293L277.824 12.8313V63.0954C277.824 70.523 283.624 73.4738 289.831 74.593V75H264.088V74.593C270.193 73.4738 275.993 70.523 275.993 63.0954V9.37187L274.161 5.81065C271.007 2.85993 268.87 2.24943 264.393 2.14769V1.74069H280.368L301.837 61.0604L318.32 1.74069H335.719V2.14769ZM357.687 1.74069C373.967 1.74069 379.563 7.94738 379.563 17.7153C379.563 26.2622 372.034 33.2829 360.841 33.2829C356.873 33.2829 352.6 32.3671 347.919 30.5357V68.1828C347.919 73.5755 354.736 73.8808 357.891 74.593V75H331.538V74.593C334.59 73.8808 341.407 73.5755 341.407 68.1828V8.55787C341.407 3.16518 334.59 2.65643 331.538 2.14769V1.74069H357.687ZM347.919 29.4164C351.887 31.2479 355.449 32.0619 358.501 32.0619C366.641 32.0619 371.627 26.4657 371.627 18.7328C371.627 9.67712 367.455 2.85993 356.161 2.85993C351.786 2.85993 347.919 3.67392 347.919 8.55787V29.4164ZM404.44 2.14769C401.286 2.85993 394.469 3.16518 394.469 8.55787V68.1828C394.469 73.5755 401.286 73.8808 404.44 74.593V75H377.476V74.593C380.529 73.8808 387.346 73.5755 387.346 68.1828V8.55787C387.346 3.16518 380.529 2.85993 377.476 2.14769V1.74069H404.44V2.14769ZM404.894 39.3878C404.894 18.631 421.784 0.214455 442.643 0.214455C464.214 0.214455 479.171 17.6135 479.171 37.2511C479.171 57.3974 462.687 76.5262 441.727 76.5262C420.563 76.5262 404.894 60.3481 404.894 39.3878ZM470.42 45.8998C471.133 24.736 463.094 2.24943 440.201 2.24943C425.447 2.24943 412.932 13.0348 412.525 31.4514C412.118 48.3417 423.005 74.0843 444.271 74.0843C459.94 74.0843 469.81 62.9936 470.42 45.8998ZM540.028 1.74069V2.14769C533.821 3.26692 528.022 4.18267 528.022 11.6103V75H527.106L491.901 9.37187V65.1303C491.901 72.558 497.7 73.4738 503.907 74.593V75H478.572V74.593C484.676 73.4738 490.476 72.558 490.476 65.1303V7.03164C486.304 2.55468 481.624 2.35118 476.537 2.35118V1.74069H496.276L526.597 57.0922V11.6103C526.597 4.18267 520.797 3.26692 514.692 2.14769V1.74069H540.028ZM576.382 4.18267C575.67 11.9156 575.466 25.7535 575.466 28.1954H574.957C574.957 11.4069 570.989 1.74069 559.797 1.74069C550.029 1.74069 544.738 6.72639 544.738 14.1541C544.738 23.3115 550.232 28.0937 564.782 37.4546C577.501 45.4928 578.01 52.6152 578.01 56.8887C578.01 70.3195 566.919 76.5262 556.134 76.5262C550.436 76.5262 543.924 74.4913 538.429 71.1335C538.735 61.3656 538.429 48.647 538.429 47.2225H539.142C539.142 63.6041 546.773 75 557.762 75C566.919 75 571.803 70.116 571.803 61.6709C571.803 56.3799 569.158 51.903 557.05 43.763C545.348 35.9284 538.633 31.1462 538.633 20.259C538.633 11.7121 545.043 0.214455 560.814 0.214455C567.224 0.214455 571.905 1.84244 576.382 4.18267ZM605.284 75V74.593C609.048 74.186 615.153 73.5755 615.153 68.1828V8.55787C615.153 3.16518 608.336 2.65643 605.284 2.14769V1.74069H632.044C648.323 1.74069 653.92 7.94738 653.92 17.7153C653.92 25.4482 647.815 31.8584 638.25 33.0794C649.85 36.1319 657.481 43.1525 657.481 54.3449C657.481 67.0636 648.527 75 630.009 75H605.284ZM622.276 8.55787V29.4164C626.244 31.2479 629.805 32.0619 632.858 32.0619C640.997 32.0619 645.983 26.4657 645.983 18.7328C645.983 9.67712 641.811 2.85993 630.517 2.85993C626.142 2.85993 622.276 3.67392 622.276 8.55787ZM622.276 68.1828C622.276 73.0668 626.244 73.8808 628.482 73.8808C641.201 73.8808 649.341 66.9618 649.341 54.4467C649.341 37.0476 630.517 33.5881 622.276 30.5357V68.1828ZM709.467 31.5532C708.856 43.2543 709.67 69.6073 710.789 75H657.88V74.593C660.932 74.0843 667.75 73.5755 667.75 68.1828V8.55787C667.75 3.16518 660.932 2.65643 657.88 2.14769V1.74069H709.67C709.06 7.03164 708.653 13.1366 709.263 24.8377H708.551C707.839 9.67712 701.327 3.16518 685.149 3.16518H684.843C681.689 3.16518 674.872 3.97917 674.872 8.55787V31.3497H680.977C692.78 31.3497 694.815 17.3083 695.527 13.2383H695.934L694.51 32.0619L695.934 50.7837H695.527C694.815 46.8155 692.78 32.7741 680.977 32.7741H674.872V68.1828C674.872 72.7615 681.689 73.5755 684.843 73.5755H686.166C701.53 73.5755 708.653 72.6598 708.754 31.5532H709.467ZM786.428 43.356V43.763C783.274 44.4753 776.457 44.7805 776.457 50.1732V75L770.046 71.0318C764.959 74.0843 758.651 76.0175 751.223 76.0175C730.364 76.0175 715.305 60.3481 715.305 39.2861C715.305 17.9188 728.431 0.214455 750.205 0.214455C759.872 0.214455 766.078 1.23194 775.846 3.16518C774.93 8.35438 774.727 29.3147 775.236 37.1494H774.523C774.523 6.72639 760.38 1.94418 749.29 1.94418C732.196 1.94418 722.123 15.4768 722.123 33.2829C722.123 54.9554 735.757 70.6248 754.682 70.6248C760.686 70.6248 765.468 69.9125 769.334 68.1828V50.1732C769.334 44.7805 762.517 44.4753 759.363 43.763V43.356L772.895 44.4753L786.428 43.356ZM808.717 2.14769C805.563 2.85993 798.745 3.16518 798.745 8.55787V68.1828C798.745 73.5755 805.563 73.8808 808.717 74.593V75H781.753V74.593C784.806 73.8808 791.623 73.5755 791.623 68.1828V8.55787C791.623 3.16518 784.806 2.85993 781.753 2.14769V1.74069H808.717V2.14769ZM867.066 1.74069V2.14769C860.859 3.26692 855.06 4.18267 855.06 11.6103V75H854.144L818.939 9.37187V65.1303C818.939 72.558 824.738 73.4738 830.945 74.593V75H805.609V74.593C811.714 73.4738 817.514 72.558 817.514 65.1303V7.03164C813.342 2.55468 808.662 2.35118 803.574 2.35118V1.74069H823.314L853.635 57.0922V11.6103C853.635 4.18267 847.835 3.26692 841.73 2.14769V1.74069H867.066Z" fill="white"/>
</svg>
