<svg width="629" height="90" viewBox="0 0 629 90" fill="none" xmlns="http://www.w3.org/2000/svg">
<path d="M72.5703 36.8281C72.5703 16.9459 56.4526 0.828125 36.5703 0.828125C16.6881 0.828125 0.570312 16.9459 0.570312 36.8281C0.570312 56.7104 16.6881 72.8281 36.5703 72.8281C56.4526 72.8281 72.5703 56.7104 72.5703 36.8281Z" fill="#A967FF"/>
<path d="M63.251 43.7754C64.4765 39.5443 64.7172 35.0798 63.954 30.737C63.1908 26.3945 61.4448 22.2931 58.8548 18.759C56.2647 15.2251 52.9019 12.3559 49.0338 10.3795C45.1656 8.40312 40.8986 7.37402 36.5721 7.37402C32.2455 7.37402 27.9786 8.40312 24.1104 10.3795C20.2423 12.3559 16.8795 15.2251 14.2894 18.759C11.6993 22.2931 9.95328 26.3945 9.19011 30.737C8.42693 35.0798 8.66762 39.5443 9.89308 43.7754L14.3655 38.8513C13.9192 36.8907 13.6938 34.8847 13.6936 32.8722C13.6936 27.7062 14.8004 23.2554 16.8731 19.6677C16.5655 22.2067 16.1149 26.26 16.3265 26.6995C16.3931 26.8373 19.2651 30.2653 20.6364 31.8933C20.5442 32.2449 20.4582 32.6005 20.3798 32.9681C20.3405 33.1099 21.3593 34.6641 21.2927 34.8618C20.9969 35.637 10.5513 45.05 10.4514 45.6972C10.4161 45.9308 10.8295 49.2172 10.996 49.5626C11.1351 49.8524 13.2293 53.1884 13.2293 53.1884C13.2293 53.1884 13.0706 51.3027 13.1529 51.1708C13.2352 51.0389 14.2206 48.3921 14.3048 48.2422C14.3499 48.1682 15.9484 46.2445 15.9484 46.2445V46.5023L15.1335 48.4999C15.1335 48.4999 14.4929 52.8667 14.485 53.0945C14.4733 53.536 15.8309 56.3108 15.9621 56.4646C16.2932 56.8642 19.5804 59.6388 19.5804 59.6388C19.5804 59.6388 19.3728 58.3004 19.3845 58.1306C19.3963 57.9609 19.9586 55.1501 20.0761 54.8945C20.1114 54.8145 21.2515 53.3282 21.2515 53.3282L21.2731 53.528C21.2731 53.528 20.8578 54.9264 20.8187 55.0783C20.7794 55.23 20.799 58.9897 20.8187 59.2014C20.8381 59.4132 22.3388 61.229 22.4583 61.4108C22.7775 61.9042 27.1874 63.6762 27.1874 63.6762C27.1874 63.6762 26.5996 62.6613 26.5762 62.2977C26.5644 62.0979 26.5251 59.7727 26.5448 59.6108C26.5644 59.4492 27.7712 57.5552 27.7712 57.5552L27.828 57.6832C27.828 57.6832 27.4793 59.6529 27.4715 59.7247C27.4518 59.9245 27.8868 62.6933 27.973 62.8152C28.1276 63.0429 31.4992 64.761 31.9224 64.8847C33.1801 65.2682 36.5927 66.2831 36.5927 66.2831C36.5927 66.2831 40.0759 65.2682 41.3316 64.8847C41.7469 64.761 45.1281 63.0429 45.2849 62.8152C45.3692 62.6933 45.802 59.9165 45.7825 59.7247C45.7825 59.6529 45.426 57.6832 45.426 57.6832L45.4847 57.5552C45.4847 57.5552 46.6933 59.4592 46.711 59.6108C46.7287 59.7627 46.6933 62.1001 46.6778 62.2977C46.6503 62.6613 46.0686 63.6762 46.0686 63.6762C46.0686 63.6762 50.4782 61.9042 50.7957 61.4108C50.9151 61.229 52.4235 59.4132 52.4373 59.2014C52.451 58.9897 52.4607 55.218 52.4373 55.0783C52.4137 54.9384 51.9847 53.528 51.9847 53.528L52.0082 53.3282C52.0082 53.3282 53.1406 54.8145 53.1836 54.8945C53.3011 55.1501 53.8673 57.9548 53.8752 58.1306C53.883 58.3065 53.6793 59.6388 53.6793 59.6388C53.6793 59.6388 56.9666 56.8582 57.2976 56.4646C57.4269 56.3108 58.7905 53.536 58.7748 53.0945C58.7748 52.8568 58.1243 48.4999 58.1243 48.4999L57.3114 46.5023V46.2426C57.3114 46.2426 58.9119 48.1743 58.953 48.2402C59.0353 48.39 60.0109 51.017 60.1069 51.1688C60.2028 51.3205 60.0305 53.1865 60.0305 53.1865C60.0305 53.1865 62.1228 49.8503 62.2658 49.5606C62.4322 49.215 62.8436 45.9289 62.8064 45.6952C62.7104 45.0439 52.2629 35.635 51.9672 34.8599C51.8927 34.6601 52.9192 33.1058 52.8799 32.9661C52.7997 32.5986 52.7115 32.243 52.6233 31.8913C53.9946 30.2712 56.8627 26.8433 56.9332 26.6973C57.1291 26.2719 56.7118 22.3765 56.4043 19.8315C58.4162 23.3912 59.4917 27.7841 59.4917 32.8702C59.4925 34.8828 59.267 36.889 58.8198 38.8492L63.251 43.7754ZM36.5888 19.2041C36.9609 19.2202 37.6447 19.1802 38.062 19.2701C44.8657 20.7703 48.6406 26.6854 48.9247 27.1789C49.0148 27.3566 47.8296 26.957 47.4809 26.9071C47.1695 26.8652 46.9677 26.9971 46.7522 27.3067C46.5367 27.6163 40.4226 36.3301 40.2737 35.9945C40.1914 35.7947 39.7545 33.2258 39.7545 33.2258L38.4223 33.2638C38.4223 33.2638 40.0307 42.6167 40.1757 43.5936C40.3207 44.5705 40.3853 44.7003 40.1757 44.8142C39.4451 45.2138 39.4352 45.1817 36.5711 46.0267C36.5711 46.0267 33.6522 45.1439 33.0449 44.8142C32.8353 44.7003 32.9019 44.5686 33.0449 43.5936C33.1879 42.6188 34.7963 33.2638 34.7963 33.2638L33.4641 33.2258C33.4641 33.2258 33.0292 35.8047 32.9469 35.9945C32.798 36.3301 26.678 27.6163 26.4703 27.3067C26.2627 26.9971 26.0511 26.8633 25.7397 26.9071C25.391 26.957 24.2038 27.3566 24.2959 27.1789C24.5838 26.6854 28.3569 20.7703 35.1606 19.2701C35.568 19.1802 36.2165 19.2202 36.5888 19.2041ZM47.4829 37.0033C47.4829 38.4697 46.1664 39.6582 44.5443 39.6582C44.1928 39.659 43.8434 39.6017 43.5099 39.4885C44.56 38.238 45.8354 36.7317 46.9265 35.4472C47.2832 35.8844 47.4799 36.4345 47.4829 37.0033ZM26.2902 35.4552C27.3833 36.7397 28.6567 38.2519 29.7048 39.4965C29.3719 39.6097 29.0232 39.667 28.6724 39.6662C27.0483 39.6662 25.7338 38.4777 25.7338 37.0114C25.7367 36.4426 25.9333 35.8924 26.2902 35.4552ZM53.9125 40.1157C54.1416 40.9147 51.6693 44.5944 50.925 44.97C50.5586 45.1578 46.1077 43.248 44.5698 42.7147C44.4013 42.6547 42.9811 42.8106 42.9811 42.8106L43.0066 42.9803C43.0066 42.9803 44.1193 43.1242 44.2759 43.238C44.6423 43.5018 47.4241 46.2085 47.5143 46.4962C47.6495 46.9297 46.6953 49.253 46.7639 49.4588C46.8324 49.6645 49.2009 49.1512 49.2009 49.1512C49.2009 49.1512 47.5868 50.8771 47.2752 51.0788C46.9638 51.2806 44.4445 52.0039 43.8901 52.0278C43.3357 52.0518 41.1161 50.925 41.0358 51.0469C40.9554 51.1688 43.0261 52.9068 43.0261 52.9068C43.0261 52.9068 39.2549 52.773 38.9435 52.6391C38.6319 52.5053 36.5927 51.1688 36.5927 51.1688C36.5927 51.1688 34.6121 52.5012 34.3026 52.6391C33.993 52.7769 30.2199 52.9068 30.2199 52.9068C30.2199 52.9068 32.3102 51.1988 32.2104 51.0469C32.1104 50.8951 29.9105 52.0458 29.3561 52.0278C28.8017 52.0098 26.2784 51.2847 25.9707 51.0788C25.6633 50.8732 24.0451 49.1512 24.0451 49.1512C24.0451 49.1512 26.4077 49.6585 26.4801 49.4588C26.5526 49.259 25.5947 46.9297 25.7318 46.4962C25.822 46.2085 28.6038 43.4997 28.97 43.238C29.1268 43.1242 30.2336 42.9803 30.2336 42.9803L30.2631 42.8106C30.2631 42.8106 28.8447 42.6547 28.6763 42.7147C27.1385 43.248 22.6836 45.1578 22.3192 44.97C21.5768 44.5944 19.1024 40.9147 19.3317 40.1157C19.5609 39.3167 22.4838 35.4391 22.5367 35.0876C22.5738 34.836 21.7002 33.2418 21.6648 33.09C21.6159 32.8902 23.6455 32.3788 23.8767 32.6125C23.9687 32.7084 24.7229 33.5833 25.7338 34.77C25.2282 35.112 24.8129 35.5758 24.5249 36.1204C24.2369 36.6649 24.0848 37.2735 24.0824 37.8924C24.0824 39.9959 25.8083 41.7018 27.9377 41.7018C28.9479 41.7041 29.9199 41.3083 30.6509 40.5971C31.3483 41.4362 31.8126 42.0075 31.8263 42.0615C31.8126 42.3312 31.2033 46.1905 31.2092 46.3524C31.2328 46.8398 35.4016 48.3661 36.5888 48.9494C37.7642 48.3641 42.0153 46.8379 42.0387 46.3524C42.0387 46.1905 41.4354 42.3312 41.4216 42.0615C41.4373 42.0075 41.9016 41.4362 42.597 40.5971C43.328 41.3083 44.3001 41.7041 45.3103 41.7018C47.4398 41.7018 49.1677 39.9959 49.1677 37.8924C49.1644 37.2737 49.0122 36.6654 48.7242 36.1208C48.4362 35.5764 48.0214 35.1125 47.5163 34.77C48.5251 33.5833 49.2793 32.7084 49.3734 32.6125C49.6046 32.3788 51.634 32.8902 51.587 33.09C51.5538 33.2338 50.6761 34.828 50.7134 35.0876C50.7525 35.4311 53.6734 39.3047 53.9027 40.1077L53.9125 40.1157ZM38.3147 16.4574C37.9111 16.3495 36.7473 16.3355 36.5986 16.3355H36.5829C36.432 16.3355 35.3271 16.3495 34.9217 16.4574C30.926 17.5471 27.3769 19.9117 24.7934 23.2055C23.6631 22.758 21.7687 22.0069 21.6473 21.8392C21.4689 21.6133 19.9957 15.914 20.08 15.5385C24.0177 11.679 29.6401 9.55746 36.5829 9.55746C43.5648 9.55746 49.2205 11.705 53.1581 15.6164C53.117 16.3875 51.7575 21.6233 51.591 21.8392C51.4656 21.9969 49.5732 22.758 48.4428 23.2055C45.858 19.9069 42.3051 17.5393 38.3048 16.4494L38.3147 16.4574Z" fill="white"/>
<path d="M97.1191 39.5643C97.1191 28.0389 105.187 18.4893 117.481 18.4893C121.707 18.4893 124.835 18.6539 130.213 19.0381C129.61 24.0873 129.555 40.168 129.884 46.3148H129.5C129.226 23.3189 125.768 19.1478 116.932 19.1478C106.888 19.1478 99.7535 26.6668 99.7535 35.3932C99.7535 47.632 108.425 56.0291 117.481 56.0291C126.921 56.0291 132.354 51.4189 136.031 42.0889L136.305 42.2535C133.781 49.0041 129.006 59.377 116.932 59.377C104.803 59.377 97.1191 50.925 97.1191 39.5643ZM165.061 19.532C163.359 19.9162 159.682 20.0809 159.682 22.9896V55.151C159.682 58.0598 163.359 58.2244 165.061 58.6086V58.8281H150.517V58.6086C152.163 58.2244 155.84 58.0598 155.84 55.151V38.7959H142.394V55.151C142.394 58.0598 146.071 58.2244 147.773 58.6086V58.8281H133.229V58.6086C134.875 58.2244 138.552 58.0598 138.552 55.151V22.9896C138.552 20.0809 134.875 19.9162 133.229 19.532V19.3125H147.773V19.532C146.071 19.9162 142.394 20.0809 142.394 22.9896V38.0275H155.84V22.9896C155.84 20.0809 152.163 19.9162 150.517 19.532V19.3125H165.061V19.532ZM192.936 56.3035C193.705 58.3342 196.394 58.2244 198.48 58.6086V58.8281H183.167V58.6086C185.582 58.2244 189.424 58.2244 188.711 56.3035L182.564 39.3447H172.191L167.855 52.4617C166.538 56.4133 168.733 57.8951 172.63 58.6086V58.8281H159.238V58.6086C165.33 57.6756 165.879 55.8645 167.087 52.2422L178.228 18.4893H179.161L192.936 56.3035ZM172.465 38.5764H182.289L177.13 24.4166L172.465 38.5764ZM230.189 19.532C228.487 19.9162 224.81 20.0809 224.81 22.9896V55.151C224.81 58.0598 228.487 58.2244 230.189 58.6086V58.8281H215.645V58.6086C217.291 58.2244 220.968 58.0598 220.968 55.151V22.3311L210.98 58.2244H210.541L198.96 25.2947V52.4068C198.96 56.4133 202.089 58.0049 205.437 58.6086V58.8281H191.551V58.6086C194.844 58.0049 197.972 56.4133 197.972 52.4068V23.4287L196.985 21.5078C195.283 19.9162 194.131 19.5869 191.716 19.532V19.3125H200.332L211.913 51.3092L220.804 19.3125H230.189V19.532ZM242.038 19.3125C250.819 19.3125 253.838 22.6603 253.838 27.9291C253.838 32.5393 249.776 36.3262 243.739 36.3262C241.599 36.3262 239.294 35.8322 236.769 34.8443V55.151C236.769 58.0598 240.446 58.2244 242.148 58.6086V58.8281H227.933V58.6086C229.579 58.2244 233.257 58.0598 233.257 55.151V22.9896C233.257 20.0809 229.579 19.8064 227.933 19.532V19.3125H242.038ZM236.769 34.2406C238.91 35.2285 240.83 35.6676 242.477 35.6676C246.868 35.6676 249.557 32.649 249.557 28.4779C249.557 23.5934 247.307 19.9162 241.215 19.9162C238.855 19.9162 236.769 20.3553 236.769 22.9896V34.2406ZM267.256 19.532C265.555 19.9162 261.878 20.0809 261.878 22.9896V55.151C261.878 58.0598 265.555 58.2244 267.256 58.6086V58.8281H252.712V58.6086C254.359 58.2244 258.036 58.0598 258.036 55.151V22.9896C258.036 20.0809 254.359 19.9162 252.712 19.532V19.3125H267.256V19.532ZM267.501 39.6191C267.501 28.423 276.612 18.4893 287.863 18.4893C299.498 18.4893 307.565 27.8742 307.565 38.4666C307.565 49.3334 298.674 59.6514 287.369 59.6514C275.953 59.6514 267.501 50.925 267.501 39.6191ZM302.846 43.1316C303.23 31.716 298.894 19.5869 286.545 19.5869C278.587 19.5869 271.837 25.4045 271.617 35.3383C271.398 44.4488 277.27 58.3342 288.741 58.3342C297.193 58.3342 302.516 52.352 302.846 43.1316ZM340.391 19.3125V19.532C337.044 20.1357 333.915 20.6297 333.915 24.6361V58.8281H333.421L314.432 23.4287V53.5045C314.432 57.5109 317.56 58.0049 320.908 58.6086V58.8281H307.242V58.6086C310.535 58.0049 313.664 57.5109 313.664 53.5045V22.1664C311.413 19.7516 308.889 19.6418 306.145 19.6418V19.3125H316.792L333.147 49.1687V24.6361C333.147 20.6297 330.019 20.1357 326.726 19.532V19.3125H340.391ZM360.001 20.6297C359.616 24.8008 359.507 32.2648 359.507 33.582H359.232C359.232 24.5264 357.092 19.3125 351.055 19.3125C345.786 19.3125 342.932 22.0018 342.932 26.0082C342.932 30.9477 345.896 33.5271 353.744 38.5764C360.604 42.9121 360.879 46.7539 360.879 49.059C360.879 56.3035 354.896 59.6514 349.079 59.6514C346.005 59.6514 342.493 58.5537 339.529 56.7426C339.694 51.4738 339.529 44.6135 339.529 43.8451H339.913C339.913 52.6812 344.03 58.8281 349.957 58.8281C354.896 58.8281 357.531 56.1937 357.531 51.6385C357.531 48.7846 356.104 46.3697 349.573 41.9791C343.261 37.7531 339.639 35.1736 339.639 29.3012C339.639 24.691 343.097 18.4893 351.603 18.4893C355.061 18.4893 357.586 19.3674 360.001 20.6297ZM375.59 58.8281V58.6086C377.621 58.3891 380.914 58.0598 380.914 55.151V22.9896C380.914 20.0809 377.236 19.8064 375.59 19.532V19.3125H390.024C398.805 19.3125 401.824 22.6603 401.824 27.9291C401.824 32.1002 398.531 35.5578 393.372 36.2164C399.629 37.8629 403.745 41.6498 403.745 47.6869C403.745 54.5473 398.915 58.8281 388.926 58.8281H375.59ZM384.755 22.9896V34.2406C386.896 35.2285 388.817 35.6676 390.463 35.6676C394.854 35.6676 397.543 32.649 397.543 28.4779C397.543 23.5934 395.293 19.9162 389.201 19.9162C386.841 19.9162 384.755 20.3553 384.755 22.9896ZM384.755 55.151C384.755 57.7854 386.896 58.2244 388.103 58.2244C394.964 58.2244 399.354 54.4924 399.354 47.7418C399.354 38.3568 389.201 36.4908 384.755 34.8443V55.151ZM431.786 35.3932C431.456 41.7047 431.895 55.9193 432.499 58.8281H403.96V58.6086C405.607 58.3342 409.284 58.0598 409.284 55.151V22.9896C409.284 20.0809 405.607 19.8064 403.96 19.532V19.3125H431.895C431.566 22.1664 431.347 25.4594 431.676 31.7709H431.292C430.908 23.5934 427.395 20.0809 418.669 20.0809H418.504C416.803 20.0809 413.126 20.5199 413.126 22.9896V35.2834H416.418C422.785 35.2834 423.883 27.7096 424.267 25.5143H424.486L423.718 35.6676L424.486 45.766H424.267C423.883 43.6256 422.785 36.0518 416.418 36.0518H413.126V55.151C413.126 57.6207 416.803 58.0598 418.504 58.0598H419.218C427.505 58.0598 431.347 57.5658 431.401 35.3932H431.786ZM473.298 41.7596V41.9791C471.597 42.3633 467.92 42.5279 467.92 45.4367V58.8281L464.462 56.6877C461.718 58.3342 458.315 59.377 454.309 59.377C443.058 59.377 434.935 50.925 434.935 39.5643C434.935 28.0389 442.015 18.4893 453.76 18.4893C458.974 18.4893 462.322 19.0381 467.59 20.0809C467.096 22.8799 466.987 34.1857 467.261 38.4117H466.877C466.877 22.0018 459.248 19.4223 453.266 19.4223C444.046 19.4223 438.612 26.7217 438.612 36.3262C438.612 48.0162 445.967 56.4682 456.175 56.4682C459.413 56.4682 461.992 56.084 464.078 55.151V45.4367C464.078 42.5279 460.401 42.3633 458.699 41.9791V41.7596L465.999 42.3633L473.298 41.7596ZM485.321 19.532C483.619 19.9162 479.942 20.0809 479.942 22.9896V55.151C479.942 58.0598 483.619 58.2244 485.321 58.6086V58.8281H470.777V58.6086C472.423 58.2244 476.1 58.0598 476.1 55.151V22.9896C476.1 20.0809 472.423 19.9162 470.777 19.532V19.3125H485.321V19.532ZM516.794 19.3125V19.532C513.446 20.1357 510.318 20.6297 510.318 24.6361V58.8281H509.824L490.834 23.4287V53.5045C490.834 57.5109 493.962 58.0049 497.31 58.6086V58.8281H483.645V58.6086C486.937 58.0049 490.066 57.5109 490.066 53.5045V22.1664C487.816 19.7516 485.291 19.6418 482.547 19.6418V19.3125H493.194L509.549 49.1687V24.6361C509.549 20.6297 506.421 20.1357 503.128 19.532V19.3125H516.794Z" fill="white"/>
</svg>
